<svg id="visual" viewBox="0 0 1920 6465" width="1920" height="6465" xmlns="http://www.w3.org/2000/svg" xmlns:xlink="http://www.w3.org/1999/xlink" version="1.1"><rect x="0" y="0" width="1920" height="6465" fill="#FCFCFB"></rect><defs><linearGradient id="grad1_0" x1="0%" y1="0%" x2="100%" y2="100%"><stop offset="30%" stop-color="#fcfcfb" stop-opacity="1"></stop><stop offset="70%" stop-color="#fcfcfb" stop-opacity="1"></stop></linearGradient></defs><defs><linearGradient id="grad2_0" x1="0%" y1="0%" x2="100%" y2="100%"><stop offset="30%" stop-color="#fcfcfb" stop-opacity="1"></stop><stop offset="70%" stop-color="#fcfcfb" stop-opacity="1"></stop></linearGradient></defs><g transform="translate(1920, 0)"><path d="M0 960C-124 947.3 -248.1 934.6 -367.4 886.9C-486.7 839.2 -601.3 756.4 -649.1 649.1C-697 541.8 -678.1 410 -718.8 297.7C-759.5 185.5 -859.7 92.7 -960 0L0 0Z" fill="#78D04F"></path></g><g transform="translate(0, 6465)"><path d="M0 -960C80.1 -837.7 160.2 -715.3 284.3 -686.4C408.5 -657.6 576.7 -722.1 678.8 -678.8C780.9 -635.5 816.9 -484.3 852.7 -353.2C888.6 -222.1 924.3 -111.1 960 0L0 0Z" fill="#78D04F"></path></g></svg>