<svg id="visual" viewBox="0 0 1920 2500" width="1920" height="2500" xmlns="http://www.w3.org/2000/svg" xmlns:xlink="http://www.w3.org/1999/xlink" version="1.1"><rect x="0" y="0" width="1920" height="2500" fill="#d3d3d3"></rect><defs><linearGradient id="grad1_0" x1="0%" y1="0%" x2="100%" y2="100%"><stop offset="30%" stop-color="#d3d3d3" stop-opacity="1"></stop><stop offset="70%" stop-color="#d3d3d3" stop-opacity="1"></stop></linearGradient></defs><defs><linearGradient id="grad2_0" x1="0%" y1="0%" x2="100%" y2="100%"><stop offset="30%" stop-color="#d3d3d3" stop-opacity="1"></stop><stop offset="70%" stop-color="#d3d3d3" stop-opacity="1"></stop></linearGradient></defs><g transform="translate(1920, 0)"><path d="M0 709.2C-79.7 615.2 -159.5 521.1 -273.5 473.7C-387.5 426.4 -535.9 425.8 -614.2 354.6C-692.6 283.5 -700.9 141.7 -709.2 0L0 0Z" fill="#78d04f"></path></g><g transform="translate(0, 2500)"><path d="M0 -709.2C122.7 -689.5 245.3 -669.8 354 -613.1C462.7 -556.5 557.3 -463 614.2 -354.6C671.1 -246.3 690.2 -123.1 709.2 0L0 0Z" fill="#78d04f"></path></g></svg>