<svg id="visual" viewBox="0 0 1920 2500" width="1920" height="2500" xmlns="http://www.w3.org/2000/svg" xmlns:xlink="http://www.w3.org/1999/xlink" version="1.1"><rect x="0" y="0" width="1920" height="2500" fill="#CCCCCC"></rect><defs><linearGradient id="grad1_0" x1="0%" y1="0%" x2="100%" y2="100%"><stop offset="30%" stop-color="#cccccc" stop-opacity="1"></stop><stop offset="70%" stop-color="#cccccc" stop-opacity="1"></stop></linearGradient></defs><defs><linearGradient id="grad2_0" x1="0%" y1="0%" x2="100%" y2="100%"><stop offset="30%" stop-color="#cccccc" stop-opacity="1"></stop><stop offset="70%" stop-color="#cccccc" stop-opacity="1"></stop></linearGradient></defs><g transform="translate(1920, 0)"><path d="M0 945.7C-105.9 887.4 -211.8 829.2 -327.6 790.8C-443.3 752.5 -569 733.9 -666.1 666.1C-763.2 598.3 -831.8 481.1 -873.7 361.9C-915.5 242.7 -930.6 121.3 -945.7 0L0 0Z" fill="#001220"></path></g><g transform="translate(0, 2500)"><path d="M0 -945.7C111.7 -899.3 223.5 -853 335.6 -810.2C447.8 -767.4 560.4 -728.2 655.5 -655.5C750.6 -582.8 828.2 -476.7 873.7 -361.9C919.1 -247.1 932.4 -123.5 945.7 0L0 0Z" fill="#001220"></path></g></svg>