<svg id="visual" viewBox="0 0 1920 1080" width="1920" height="1080" xmlns="http://www.w3.org/2000/svg" xmlns:xlink="http://www.w3.org/1999/xlink" version="1.1"><rect x="0" y="0" width="1920" height="1080" fill="#FCFCFB"></rect><defs><linearGradient id="grad1_0" x1="43.8%" y1="0%" x2="100%" y2="100%"><stop offset="14.444444444444446%" stop-color="#fcfcfb" stop-opacity="1"></stop><stop offset="85.55555555555554%" stop-color="#fcfcfb" stop-opacity="1"></stop></linearGradient></defs><defs><linearGradient id="grad2_0" x1="0%" y1="0%" x2="56.3%" y2="100%"><stop offset="14.444444444444446%" stop-color="#fcfcfb" stop-opacity="1"></stop><stop offset="85.55555555555554%" stop-color="#fcfcfb" stop-opacity="1"></stop></linearGradient></defs><g transform="translate(1920, 0)"><path d="M0 540C-64.4 524.3 -128.9 508.7 -202.1 487.8C-275.2 466.9 -357.2 440.8 -381.8 381.8C-406.5 322.9 -374 231 -390.8 161.9C-407.6 92.8 -473.8 46.4 -540 0L0 0Z" fill="#78D04F"></path></g><g transform="translate(0, 1080)"><path d="M0 -540C68.7 -532 137.4 -523.9 206.6 -498.9C275.9 -473.9 345.8 -431.8 370.5 -370.5C395.2 -309.2 374.7 -228.7 395.4 -163.8C416.1 -98.8 478.1 -49.4 540 0L0 0Z" fill="#78D04F"></path></g></svg>