<svg id="visual" viewBox="0 0 1920 1080" width="1920" height="1080" xmlns="http://www.w3.org/2000/svg" xmlns:xlink="http://www.w3.org/1999/xlink" version="1.1"><rect x="0" y="0" width="1920" height="1080" fill="#FCFCFB"></rect><defs><linearGradient id="grad1_0" x1="43.8%" y1="0%" x2="100%" y2="100%"><stop offset="14.444444444444446%" stop-color="#fcfcfb" stop-opacity="1"></stop><stop offset="85.55555555555554%" stop-color="#fcfcfb" stop-opacity="1"></stop></linearGradient></defs><defs><linearGradient id="grad2_0" x1="0%" y1="0%" x2="56.3%" y2="100%"><stop offset="14.444444444444446%" stop-color="#fcfcfb" stop-opacity="1"></stop><stop offset="85.55555555555554%" stop-color="#fcfcfb" stop-opacity="1"></stop></linearGradient></defs><g transform="translate(1920, 0)"><path d="M0 378C-40.9 375.9 -81.7 373.9 -116.8 359.5C-151.9 345.1 -181.1 318.4 -214.5 295.3C-248 272.2 -285.6 252.7 -305 221.6C-324.4 190.5 -325.6 147.7 -334.8 108.8C-343.9 69.9 -361 34.9 -378 0L0 0Z" fill="#78D04F"></path></g><g transform="translate(0, 1080)"><path d="M0 -378C31.1 -348.6 62.1 -319.2 101.4 -311.9C140.6 -304.7 188.1 -319.6 222.2 -305.8C256.3 -292 277.1 -249.5 291.2 -211.6C305.4 -173.7 312.9 -140.5 326.2 -106C339.6 -71.5 358.8 -35.7 378 0L0 0Z" fill="#78D04F"></path></g></svg>