<svg id="visual" viewBox="0 0 1920 2500" width="1920" height="2500" xmlns="http://www.w3.org/2000/svg" xmlns:xlink="http://www.w3.org/1999/xlink" version="1.1"><rect x="0" y="0" width="1920" height="2500" fill="#F7CACA"></rect><defs><linearGradient id="grad1_0" x1="0%" y1="0%" x2="100%" y2="100%"><stop offset="30%" stop-color="#f7caca" stop-opacity="1"></stop><stop offset="70%" stop-color="#f7caca" stop-opacity="1"></stop></linearGradient></defs><defs><linearGradient id="grad2_0" x1="0%" y1="0%" x2="100%" y2="100%"><stop offset="30%" stop-color="#f7caca" stop-opacity="1"></stop><stop offset="70%" stop-color="#f7caca" stop-opacity="1"></stop></linearGradient></defs><g transform="translate(1920, 0)"><path d="M0 945.7C-136.1 943.1 -272.1 940.6 -361.3 872.1C-450.4 803.7 -492.5 669.4 -581.2 581.2C-669.9 493.1 -805.2 451.1 -873.7 361.9C-942.2 272.7 -943.9 136.4 -945.7 0L0 0Z" fill="#001220"></path></g><g transform="translate(0, 2500)"><path d="M0 -945.7C100.3 -867.3 200.6 -789 308.4 -744.6C416.3 -700.3 531.7 -689.9 633.6 -633.6C735.5 -577.3 823.9 -475.1 873.7 -361.9C923.4 -248.7 934.6 -124.3 945.7 0L0 0Z" fill="#001220"></path></g></svg>